<svg width="1920" height="40" viewBox="0 0 1920 40" fill="none" xmlns="http://www.w3.org/2000/svg">
<path d="M0 26.9898H810.432C813.947 26.1238 822.292 24.1321 827.564 23.0929C834.152 21.7939 857.664 23.0929 861.826 23.0929C869 23.0929 889.5 14.701 892.135 14.701C897.5 14.701 915.855 24.0929 919.808 24.0929C923.761 24.0929 927.715 18.8969 930.35 18.8969C932.986 18.8969 939.575 24.0929 942.21 24.0929C944.846 24.0929 961.977 17.598 968.566 13.701C973.837 10.5835 973.397 12.402 975.154 13.701C976.911 15 989.143 19.2499 991.251 19.2499C993.887 19.2499 1015.23 27.3952 1019.26 28.7905C1023.29 30.1858 1042.5 30.1858 1045 30.1858C1051 30.1858 1077 22.0929 1079.26 22.0929C1081.52 22.0929 1089.8 23.0929 1093.75 23.0929C1097.71 23.0929 1103.05 18.7877 1104.3 19.1959C1108.25 20.4949 1116.16 25.6908 1122.75 25.6908H1145.15C1148.31 25.6908 1159.64 19.6289 1164.91 16.598C1169.98 19.7246 1176.87 23.9264 1181.48 25.6908C1182.97 26.2634 1186.19 25.3444 1187 25.6908C1190.15 27.0472 1195.37 30.0379 1197.86 30.8868C1200.39 31.7499 1209.85 33.3175 1216.55 32.1858C1217.87 31.7528 1223.42 29.328 1225.53 28.2888C1226.8 27.6648 1230.8 32.1858 1234.76 32.1858H1253.21C1258.48 32.1858 1264.09 31.8732 1269.36 30.5742C1274.63 29.2753 1300.65 20.598 1304.6 20.598C1308.55 20.598 1320.41 24.7939 1323.05 24.7939C1325.68 24.7939 1336.23 20.8969 1338.86 20.8969C1341.5 20.8969 1354.37 29.9898 1357.31 29.9898C1358.86 29.9898 1379.53 20.9797 1381.5 20.1509C1382.02 19.9336 1382.66 20.2594 1383.3 20.5768L1385 20.9797C1388.5 19.5317 1397.5 13.8969 1398.84 13.8969C1400.19 13.8969 1417.12 20.8932 1419 20.9797C1420.88 21.0661 1421.86 20.4993 1423.5 20.9797C1428.61 22.4813 1433.7 24.9898 1437.69 24.9898C1442.97 24.9898 1469.5 18.6908 1474.59 16.9898C1479.59 15.3196 1491.79 11.5032 1494.38 10.1688C1496.03 9.3253 1502.66 10.1688 1505.42 9.38505C1508.18 8.60127 1513.53 5.64181 1515.67 5.64181C1517.24 5.64181 1521.18 5.24979 1523.94 4.64181C1525.52 4.64181 1532.47 0 1533.89 0C1536.16 0 1547.07 6.19593 1552.34 8.19593C1556.28 9.69187 1562 12.1959 1564.2 12.1959C1567.71 14.3609 1575.01 16.6908 1576.06 16.6908C1577.38 16.6908 1598 20.7877 1600.5 20.4797L1601.43 20.3653C1605.15 19.9047 1612.63 18.9797 1614 18.9797L1626.5 21.6908C1629.58 21.2578 1638.87 24.8148 1644.14 22.7364C1648.11 21.1688 1652.49 19.1959 1656.44 19.1959C1660.4 19.1959 1667.73 22.4797 1673 22.4797C1676.5 22.4797 1681.5 21.7939 1682.8 21.7939C1684.1 21.7939 1691.5 25.6908 1693.01 25.6908C1695.18 25.6908 1708.5 27.9797 1708.5 27.9797C1712 27.9797 1715.82 26.0526 1718.2 25.4674C1723.47 24.1684 1726.32 21.5607 1728.47 21.5607C1730.33 21.5607 1736.75 24.3919 1742.1 24.3919C1743.31 24.3919 1748.53 25.6908 1753.5 25.6908C1757.21 25.6908 1760.56 24.3919 1763.18 24.3919C1767.14 24.3919 1776.1 23.8723 1780.32 21.7939C1785.59 19.1959 1796.13 19.1959 1800.08 17.8969C1804.04 16.598 1810.62 21.7939 1814.58 21.7939C1817.74 21.7939 1824.68 19.1959 1827.76 17.8969L1835.66 21.7939H1848.84L1854.11 17.8969L1867.29 21.7939H1920V39.9797H404.557H0V26.9898Z" fill="#F8F5F0"/>
</svg>
