<svg xmlns="http://www.w3.org/2000/svg" style="display:none">
  <symbol id="icon-tent" viewBox="0 0 32 32" fill="none">
    <path d="M8 23L16 9l8 14" stroke="currentColor" stroke-width="1.8" stroke-linecap="round" stroke-linejoin="round"/>
    <path d="M7 23h18" stroke="currentColor" stroke-width="1.8" stroke-linecap="round"/>
    <path d="M14 23l2-4 2 4" stroke="currentColor" stroke-width="1.5" stroke-linecap="round" stroke-linejoin="round"/>
  </symbol>
  <symbol id="icon-tarp" viewBox="0 0 32 32" fill="none">
    <path d="M5 14l11-4 11 4" stroke="currentColor" stroke-width="1.8" stroke-linecap="round" stroke-linejoin="round"/>
    <path d="M5 14L8 22h16l3-8" stroke="currentColor" stroke-width="1.8" stroke-linecap="round" stroke-linejoin="round"/>
    <path d="M8 22h16" stroke="currentColor" stroke-width="1.8" stroke-linecap="round"/>
  </symbol>
  <symbol id="icon-sleeping-bag" viewBox="0 0 32 32" fill="none">
    <path d="M11 8h10c2 0 3 1.2 3 3.5v11c0 2.2-1.6 3.5-4 3.5H12c-2.4 0-4-1.3-4-3.5v-11C8 9.2 9 8 11 8z" stroke="currentColor" stroke-width="1.8" stroke-linejoin="round"/>
    <path d="M10 16.5h12" stroke="currentColor" stroke-width="1.5" stroke-linecap="round"/>
    <path d="M13 8v2M19 8v2" stroke="currentColor" stroke-width="1.5" stroke-linecap="round"/>
  </symbol>
  <symbol id="icon-table" viewBox="0 0 32 32" fill="none">
    <path d="M7 12h18" stroke="currentColor" stroke-width="1.8" stroke-linecap="round"/>
    <path d="M10 12v9M22 12v9" stroke="currentColor" stroke-width="1.8" stroke-linecap="round"/>
    <path d="M6 23h8M18 23h8" stroke="currentColor" stroke-width="1.8" stroke-linecap="round"/>
    <path d="M10 18h12" stroke="currentColor" stroke-width="1.5" stroke-linecap="round"/>
  </symbol>
</svg>
